<svg xmlns="http://www.w3.org/2000/svg" viewBox="0 0 32.5 33.57"><defs><style>.a{fill:#ffcd05;}.b{fill:#4e4e4f;}</style></defs><title>btclnd</title><polygon class="a" points="22.64 13.99 20.43 13.99 17.52 13.99 21.31 0 9.86 19.58 14.98 19.58 11.15 33.57 22.64 13.99"/><path class="b" d="M66.47,70.68a2.63,2.63,0,0,1-1-.17,1.86,1.86,0,0,1-.7-0.49,2.12,2.12,0,0,1-.42-0.75,3,3,0,0,1-.14-1A4.21,4.21,0,0,1,64.41,67,3.75,3.75,0,0,1,65,65.83a3.36,3.36,0,0,1,1-.86,2.79,2.79,0,0,1,1.37-.33,2.65,2.65,0,0,1,1,.17,1.86,1.86,0,0,1,.71.49,2.12,2.12,0,0,1,.42.75,3.06,3.06,0,0,1,.14,1,4.31,4.31,0,0,1-.21,1.31,3.79,3.79,0,0,1-.61,1.18,3.2,3.2,0,0,1-1,.86A2.86,2.86,0,0,1,66.47,70.68ZM67.28,66a1,1,0,0,0-.63.21,1.78,1.78,0,0,0-.46.52,2.59,2.59,0,0,0-.28.69,3,3,0,0,0-.09.71A1.71,1.71,0,0,0,66,69a0.67,0.67,0,0,0,.63.3,1,1,0,0,0,.63-0.21,1.77,1.77,0,0,0,.46-0.52A2.58,2.58,0,0,0,68,67.88a3,3,0,0,0,.09-0.71,1.72,1.72,0,0,0-.17-0.86A0.67,0.67,0,0,0,67.28,66Z" transform="translate(-46 -52.26)"/><path class="b" d="M49.81,64.67a2.06,2.06,0,0,1,.91.19,1.8,1.8,0,0,1,.63.5,2.1,2.1,0,0,1,.37.74,3.38,3.38,0,0,1,.12.92,3.73,3.73,0,0,1-1,2.59,3.56,3.56,0,0,1-1.14.79,3.46,3.46,0,0,1-1.42.29H47.9a5.14,5.14,0,0,1-.56,0,6.74,6.74,0,0,1-.67-0.13A3.42,3.42,0,0,1,46,70.26l1.89-7.93,1.69-.26L48.9,64.88a2.61,2.61,0,0,1,.44-0.15A1.92,1.92,0,0,1,49.81,64.67Zm-1.42,4.67a1.48,1.48,0,0,0,.72-0.19,1.9,1.9,0,0,0,.58-0.5,2.49,2.49,0,0,0,.39-0.7,2.39,2.39,0,0,0,.14-0.82A1.61,1.61,0,0,0,50,66.32,0.68,0.68,0,0,0,49.4,66a1.94,1.94,0,0,0-.4.05,1,1,0,0,0-.44.23l-0.72,3,0.11,0,0.1,0h0.33Z" transform="translate(-46 -52.26)"/><path class="b" d="M53.68,70.53H52.07l1.36-5.74h1.63Zm0.79-6.44a1,1,0,0,1-.61-0.2,0.72,0.72,0,0,1-.27-0.62,1,1,0,0,1,.09-0.43,1.13,1.13,0,0,1,.25-0.35,1.17,1.17,0,0,1,.35-0.23,1.08,1.08,0,0,1,.43-0.09,1,1,0,0,1,.61.2,0.72,0.72,0,0,1,.27.62,1,1,0,0,1-.09.43,1.14,1.14,0,0,1-.25.35,1.18,1.18,0,0,1-.35.23A1.07,1.07,0,0,1,54.47,64.09Z" transform="translate(-46 -52.26)"/><path class="b" d="M56.51,63.36l1.69-.26-0.41,1.69H59.6l-0.33,1.33h-1.8l-0.48,2a2.64,2.64,0,0,0-.08.47A0.77,0.77,0,0,0,57,69a0.5,0.5,0,0,0,.25.25,1.09,1.09,0,0,0,.48.09,2.57,2.57,0,0,0,.51,0,3.68,3.68,0,0,0,.5-0.14l0.12,1.24a5.79,5.79,0,0,1-.71.21,4.12,4.12,0,0,1-.91.09A2.49,2.49,0,0,1,56,70.44a1.29,1.29,0,0,1-.59-0.61,1.92,1.92,0,0,1-.15-0.89,5.68,5.68,0,0,1,.15-1.06Z" transform="translate(-46 -52.26)"/><path class="b" d="M59.44,68.24a4,4,0,0,1,.24-1.4,3.43,3.43,0,0,1,.69-1.15,3.22,3.22,0,0,1,1.09-.77,3.47,3.47,0,0,1,1.42-.28,3.79,3.79,0,0,1,.88.09,3.49,3.49,0,0,1,.7.25l-0.56,1.27-0.45-.16A2,2,0,0,0,62.88,66a1.6,1.6,0,0,0-1.29.55,2.24,2.24,0,0,0-.47,1.5,1.54,1.54,0,0,0,.24.9,1,1,0,0,0,.88.34,2.78,2.78,0,0,0,.61-0.07,3,3,0,0,0,.52-0.16l0.12,1.3a5.63,5.63,0,0,1-.67.21,3.7,3.7,0,0,1-.89.09,3,3,0,0,1-1.15-.2A2.17,2.17,0,0,1,60,70a2,2,0,0,1-.44-0.78A3.2,3.2,0,0,1,59.44,68.24Z" transform="translate(-46 -52.26)"/><path class="b" d="M71.54,70.53H69.93l1.36-5.74h1.63Zm0.79-6.44a1,1,0,0,1-.61-0.2,0.72,0.72,0,0,1-.27-0.62,1,1,0,0,1,.09-0.43,1.13,1.13,0,0,1,.25-0.35,1.17,1.17,0,0,1,.35-0.23,1.08,1.08,0,0,1,.43-0.09,1,1,0,0,1,.61.2,0.72,0.72,0,0,1,.27.62,1,1,0,0,1-.09.43,1.14,1.14,0,0,1-.25.35,1.18,1.18,0,0,1-.35.23A1.07,1.07,0,0,1,72.33,64.09Z" transform="translate(-46 -52.26)"/><path class="b" d="M74.13,65.05l0.41-.13,0.5-.13c0.19,0,.39-0.07.62-0.1a7.14,7.14,0,0,1,.78,0,2,2,0,0,1,1.77.74,2.54,2.54,0,0,1,.16,2l-0.74,3.1H76l0.72-3q0.06-.28.1-0.55a1.36,1.36,0,0,0,0-.47,0.56,0.56,0,0,0-.2-0.33A0.78,0.78,0,0,0,76.14,66a3.29,3.29,0,0,0-.64.07l-1.06,4.44H72.81Z" transform="translate(-46 -52.26)"/><path class="a" d="M68.65,66.25h-1a0.56,0.56,0,0,1,0,.08,1.72,1.72,0,0,1,.11.84,2.73,2.73,0,0,1,0,.53Z" transform="translate(-46 -52.26)"/></svg>